<?xml version="1.0" encoding="UTF-8" standalone="no"?>
<!DOCTYPE svg PUBLIC "-//W3C//DTD SVG 1.1//EN" "http://www.w3.org/Graphics/SVG/1.1/DTD/svg11.dtd">
<svg xmlns="http://www.w3.org/2000/svg" version="1.1" viewBox="0.00 0.00 1270.00 339.00">
<path fill="#ffffff" d="
  M 83.15 41.57
  Q 84.22 41.22 85.29 40.91
  Q 112.73 32.85 141.75 27.70
  Q 151.53 25.97 159.37 25.07
  Q 163.94 24.55 168.31 25.86
  C 180.52 29.53 159.91 47.61 156.56 50.74
  Q 145.76 60.80 136.10 71.37
  Q 135.55 71.96 134.93 71.45
  Q 117.32 57.03 97.67 50.35
  Q 90.04 47.76 81.66 45.65
  A 1.69 1.68 26.3 0 1 80.75 42.97
  Q 81.43 42.12 83.15 41.57
  Z"
/>
<path fill="#ffffff" d="
  M 373.12 133.69
  Q 369.89 140.55 365.62 147.87
  C 364.25 150.22 361.81 154.24 358.65 154.16
  C 348.11 153.86 350.18 143.61 353.59 137.48
  Q 369.68 108.57 379.16 76.02
  Q 383.04 62.69 386.50 48.76
  C 388.15 42.12 392.08 36.55 399.94 38.83
  C 406.40 40.71 405.49 47.15 404.18 52.21
  Q 400.91 64.76 396.56 76.24
  C 394.62 81.39 391.79 87.59 391.79 93.28
  Q 391.74 163.19 391.79 232.12
  Q 391.79 233.56 391.42 234.82
  C 391.04 236.10 391.18 237.46 390.57 238.60
  Q 388.52 242.46 384.51 242.96
  C 375.90 244.02 373.89 236.85 373.91 230.00
  Q 374.01 181.63 373.99 133.89
  Q 373.99 131.84 373.12 133.69
  Z"
/>
<path fill="#ffffff" d="
  M 1198.65 80.01
  Q 1215.00 80.00 1232.34 80.00
  C 1239.77 80.00 1244.71 84.87 1242.53 92.57
  C 1240.81 98.64 1234.16 98.41 1228.50 98.44
  Q 1213.12 98.52 1198.44 98.51
  A 0.45 0.44 90.0 0 0 1198.00 98.96
  L 1198.00 138.55
  A 0.49 0.49 0.0 0 0 1198.49 139.04
  Q 1207.06 138.98 1215.45 139.06
  Q 1220.04 139.10 1224.89 140.22
  C 1233.92 142.32 1235.96 149.35 1235.98 157.45
  Q 1236.04 186.32 1235.97 215.03
  C 1235.94 225.43 1233.08 234.75 1220.44 234.90
  Q 1196.48 235.18 1171.59 234.91
  C 1159.63 234.78 1152.07 231.62 1152.05 218.63
  Q 1151.99 184.30 1152.05 155.98
  Q 1152.06 148.97 1155.48 144.03
  C 1158.29 139.97 1164.73 139.02 1169.25 139.02
  Q 1174.75 139.03 1180.23 139.02
  A 0.49 0.49 0.0 0 0 1180.72 138.53
  Q 1180.69 92.50 1180.73 47.78
  C 1180.73 44.46 1181.45 40.71 1184.83 39.29
  Q 1187.99 37.97 1190.82 38.41
  Q 1195.61 39.16 1197.09 42.91
  Q 1198.07 45.38 1198.05 48.48
  Q 1197.95 64.70 1198.00 79.37
  Q 1198.00 80.01 1198.65 80.01
  Z
  M 1218.5118 163.0832
  A 7.02 7.02 0.0 0 0 1211.5041 156.0509
  L 1176.1241 155.9892
  A 7.02 7.02 0.0 0 0 1169.0919 162.9969
  L 1169.0082 210.9368
  A 7.02 7.02 0.0 0 0 1176.0159 217.9691
  L 1211.3959 218.0308
  A 7.02 7.02 0.0 0 0 1218.4281 211.0231
  L 1218.5118 163.0832
  Z"
/>
<path fill="#ffffff" d="
  M 993.76 79.39
  Q 998.72 79.21 1003.84 79.43
  C 1006.51 79.55 1009.64 80.47 1010.87 83.15
  Q 1013.20 88.23 1011.19 93.39
  Q 1010.28 95.72 1008.28 96.55
  Q 1006.20 97.43 1003.77 97.47
  Q 998.77 97.56 993.66 97.49
  Q 992.99 97.48 992.99 98.15
  Q 993.02 158.73 992.99 218.26
  C 992.98 226.78 989.26 235.35 979.45 235.39
  Q 953.46 235.50 930.80 235.26
  C 922.92 235.17 916.30 233.48 913.85 225.19
  C 912.51 220.71 912.97 216.06 912.98 211.32
  Q 912.99 154.68 913.03 98.08
  A 0.60 0.60 0.0 0 0 912.42 97.48
  Q 905.42 97.60 898.78 97.42
  Q 895.71 97.33 893.84 95.54
  Q 892.22 93.99 891.79 91.72
  Q 890.98 87.44 892.40 83.58
  C 893.81 79.77 898.61 79.24 902.10 79.30
  Q 907.22 79.39 912.43 79.35
  Q 913.01 79.34 913.01 78.76
  Q 912.98 63.33 913.00 48.67
  Q 913.02 40.17 921.34 39.46
  Q 923.42 39.28 925.91 40.18
  Q 927.72 40.84 929.05 42.66
  C 930.29 44.35 930.81 48.80 930.80 50.91
  Q 930.73 64.67 930.78 78.84
  A 0.51 0.50 0.0 0 0 931.29 79.34
  L 974.46 79.34
  Q 975.02 79.34 975.02 78.79
  Q 974.97 62.08 975.00 47.25
  C 975.02 39.90 983.55 37.90 988.89 40.60
  Q 992.89 42.62 992.94 48.04
  Q 993.07 61.39 992.97 78.62
  Q 992.96 79.42 993.76 79.39
  Z
  M 975.00 98.04
  A 0.53 0.53 0.0 0 0 974.47 97.51
  L 931.29 97.51
  A 0.53 0.53 0.0 0 0 930.76 98.04
  L 930.76 145.48
  A 0.53 0.53 0.0 0 0 931.29 146.01
  L 974.47 146.01
  A 0.53 0.53 0.0 0 0 975.00 145.48
  L 975.00 98.04
  Z
  M 974.97 206.45
  Q 975.01 185.57 975.00 164.69
  Q 975.00 164.00 974.32 164.00
  L 931.04 164.00
  A 0.25 0.25 0.0 0 0 930.79 164.25
  Q 930.74 184.87 930.77 209.27
  C 930.77 212.14 931.01 215.09 933.92 216.57
  C 936.07 217.67 938.29 218.03 940.77 218.03
  Q 954.88 217.98 965.36 217.93
  C 968.80 217.91 973.79 216.92 974.46 212.72
  Q 974.96 209.62 974.97 206.45
  Z"
/>
<path fill="#ffffff" d="
  M 870.22 102.02
  Q 881.98 101.96 895.08 102.03
  C 896.69 102.04 898.05 102.59 899.58 103.00
  Q 904.34 104.27 904.90 109.29
  C 905.98 118.91 899.89 120.15 892.08 120.05
  Q 880.52 119.91 870.00 120.02
  Q 869.51 120.03 869.51 120.53
  L 869.51 152.21
  Q 869.51 153.05 870.35 153.03
  Q 875.52 152.92 880.21 152.94
  Q 886.67 152.96 889.77 154.29
  Q 896.46 157.13 897.91 164.42
  Q 898.25 166.14 898.12 170.81
  C 897.75 184.61 898.07 198.57 898.05 212.59
  C 898.04 219.54 898.29 223.67 894.90 228.46
  C 891.73 232.94 885.17 233.98 880.01 234.01
  Q 857.90 234.13 838.72 233.88
  C 827.86 233.74 822.28 227.09 822.18 216.58
  Q 821.99 194.33 822.17 171.79
  C 822.24 163.04 824.98 153.27 835.57 153.07
  Q 843.53 152.92 851.47 153.02
  A 0.53 0.53 0.0 0 0 852.00 152.49
  L 852.00 120.56
  A 0.57 0.57 0.0 0 0 851.42 119.99
  Q 835.93 120.08 821.93 119.92
  C 817.66 119.88 814.39 117.61 813.70 113.25
  C 813.10 109.42 813.81 104.68 817.86 103.13
  Q 820.49 102.12 823.74 102.09
  Q 836.05 101.98 851.71 102.00
  A 0.28 0.28 0.0 0 0 851.99 101.72
  L 852.01 69.00
  A 1.09 1.09 0.0 0 0 850.73 67.93
  Q 837.55 70.35 823.13 71.59
  Q 818.28 72.01 816.38 68.28
  C 813.85 63.27 814.52 56.43 820.51 54.49
  Q 823.97 53.36 828.68 52.98
  Q 845.87 51.56 869.06 48.28
  C 876.61 47.21 883.89 45.32 891.41 44.09
  Q 900.46 42.62 902.02 51.06
  C 903.35 58.22 895.87 61.20 890.23 62.20
  Q 881.01 63.83 870.35 65.11
  A 0.95 0.94 86.6 0 0 869.52 66.05
  L 869.51 101.31
  Q 869.51 102.02 870.22 102.02
  Z
  M 881.2803 176.2731
  A 6.66 6.66 0.0 0 0 874.6087 169.6248
  L 845.6687 169.6753
  A 6.66 6.66 0.0 0 0 839.0204 176.3469
  L 839.0797 210.3269
  A 6.66 6.66 0.0 0 0 845.7513 216.9752
  L 874.6913 216.9247
  A 6.66 6.66 0.0 0 0 881.3396 210.2531
  L 881.2803 176.2731
  Z"
/>
<path fill="#ffffff" d="
  M 1106.00 156.68
  L 1106.00 169.76
  Q 1106.00 170.30 1106.53 170.25
  Q 1111.44 169.85 1116.52 170.00
  C 1119.78 170.10 1122.77 169.09 1125.98 169.05
  Q 1134.17 168.93 1141.57 169.02
  C 1143.42 169.05 1145.42 170.07 1146.07 171.92
  Q 1147.77 176.78 1146.65 180.41
  C 1145.54 184.00 1139.91 185.71 1136.65 185.82
  Q 1130.78 186.02 1124.53 186.79
  C 1120.80 187.24 1117.16 186.78 1113.45 187.22
  Q 1108.19 187.86 1102.17 188.05
  C 1097.24 188.21 1092.41 188.96 1087.37 188.97
  Q 1083.03 188.98 1079.02 189.64
  C 1074.94 190.31 1070.60 189.79 1066.39 190.33
  Q 1061.03 191.01 1053.86 191.15
  Q 1043.01 191.36 1043.88 180.53
  C 1044.21 176.37 1047.07 173.79 1051.04 173.18
  C 1053.25 172.84 1055.48 172.40 1057.75 172.34
  Q 1072.38 171.92 1085.06 171.97
  Q 1087.66 171.98 1090.49 171.19
  Q 1091.00 171.05 1091.00 170.51
  L 1091.00 156.53
  Q 1091.00 156.01 1090.47 156.01
  Q 1073.86 156.00 1057.88 156.02
  C 1054.02 156.03 1050.15 153.69 1049.92 149.48
  C 1049.77 146.68 1049.81 142.87 1052.39 141.22
  C 1055.32 139.34 1059.35 139.03 1062.82 139.03
  Q 1076.45 139.03 1090.42 139.02
  Q 1091.00 139.02 1091.00 138.44
  L 1091.00 126.71
  Q 1091.00 126.06 1090.36 126.05
  Q 1081.93 125.87 1073.26 126.06
  C 1064.36 126.25 1056.10 125.41 1053.05 116.49
  Q 1051.91 113.14 1051.90 108.16
  Q 1051.89 84.20 1052.00 61.50
  C 1052.05 52.37 1057.41 45.92 1067.05 45.96
  Q 1100.10 46.11 1130.23 45.91
  Q 1135.80 45.88 1138.97 47.34
  C 1144.75 50.00 1146.92 56.31 1146.96 62.39
  Q 1147.11 87.10 1146.94 109.15
  Q 1146.85 120.72 1138.44 124.46
  Q 1134.40 126.26 1126.43 126.08
  Q 1115.03 125.82 1106.45 126.06
  Q 1106.00 126.08 1106.00 126.53
  L 1106.00 138.29
  A 0.76 0.76 0.0 0 0 1106.77 139.05
  Q 1120.62 138.95 1134.02 139.07
  Q 1137.04 139.10 1140.27 140.23
  Q 1144.60 141.76 1145.01 146.58
  C 1145.47 152.15 1142.37 156.08 1136.84 156.05
  Q 1120.20 155.95 1106.66 156.02
  Q 1106.00 156.02 1106.00 156.68
  Z
  M 1091.31 106.88
  L 1091.09 64.96
  A 2.16 2.16 0.0 0 0 1088.92 62.81
  L 1071.51 62.90
  A 6.12 4.89 89.7 0 0 1066.65 69.04
  L 1066.83 103.04
  A 6.12 4.89 89.7 0 0 1071.75 109.14
  L 1089.16 109.05
  A 2.16 2.16 0.0 0 0 1091.31 106.88
  Z
  M 1106.04 63.91
  L 1105.80 107.91
  A 1.09 1.09 0.0 0 0 1106.89 109.01
  L 1127.01 109.11
  A 4.80 4.75 -89.7 0 0 1131.78 104.34
  L 1131.98 67.76
  A 4.80 4.75 -89.7 0 0 1127.25 62.93
  L 1107.13 62.83
  A 1.09 1.09 0.0 0 0 1106.04 63.91
  Z"
/>
<path fill="#ffffff" d="
  M 84.59 49.55
  Q 105.65 56.44 123.80 70.11
  Q 127.50 72.90 130.10 75.52
  Q 130.50 75.93 130.05 76.27
  Q 116.80 86.34 103.66 96.00
  C 90.60 105.60 77.61 112.64 63.60 119.46
  Q 62.83 119.83 62.61 119.00
  C 58.89 104.55 57.50 90.43 60.04 76.04
  Q 62.27 63.43 65.44 51.94
  Q 67.04 46.17 72.57 46.37
  Q 75.33 46.47 79.03 47.71
  Q 81.80 48.64 84.59 49.55
  Z"
/>
<path fill="#ffffff" d="
  M 426.92 203.91
  Q 426.83 216.78 426.92 230.70
  C 426.95 236.47 424.86 242.14 417.96 242.15
  C 410.86 242.16 409.01 236.18 409.01 230.34
  Q 409.01 159.59 408.99 89.00
  C 408.99 80.77 408.55 72.79 409.02 64.59
  C 409.53 55.78 413.12 48.42 422.78 48.13
  Q 437.41 47.70 455.79 48.07
  C 464.08 48.23 469.61 52.63 470.07 60.63
  C 470.16 62.16 470.51 63.56 470.54 65.08
  Q 470.95 83.21 470.37 101.44
  C 470.18 107.46 468.11 112.62 462.40 115.20
  C 460.10 116.24 457.51 116.06 454.98 116.34
  Q 453.51 116.50 452.00 116.50
  Q 439.70 116.50 427.46 116.49
  A 0.58 0.58 0.0 0 0 426.88 117.07
  L 426.89 140.24
  A 0.51 0.51 0.0 0 0 427.40 140.75
  Q 442.40 140.71 458.04 140.77
  Q 466.84 140.80 466.20 150.22
  Q 465.82 155.84 460.72 156.86
  C 458.74 157.26 456.44 157.55 454.40 157.54
  Q 441.41 157.53 427.40 157.54
  A 0.51 0.51 0.0 0 0 426.89 158.05
  L 426.89 185.93
  Q 426.89 186.53 427.49 186.53
  Q 441.49 186.45 455.39 186.55
  C 460.98 186.59 468.15 186.55 468.92 194.01
  C 469.37 198.29 466.75 202.88 462.04 203.01
  Q 460.33 203.06 458.75 203.08
  Q 442.91 203.35 427.58 203.25
  Q 426.92 203.24 426.92 203.91
  Z
  M 427.49 99.90
  Q 438.19 99.85 448.03 99.84
  Q 450.75 99.83 453.39 98.08
  A 1.20 1.19 76.6 0 0 453.93 97.20
  C 454.12 95.51 454.95 94.44 454.97 92.60
  Q 455.08 81.07 454.87 70.35
  C 454.81 67.48 452.86 64.98 449.90 64.99
  Q 440.68 65.01 431.58 65.00
  A 4.63 4.63 0.0 0 0 426.95 69.60
  Q 426.85 83.69 426.87 98.53
  Q 426.87 99.11 427.06 99.61
  Q 427.18 99.90 427.49 99.90
  Z"
/>
<path fill="#ffffff" d="
  M 514.17 98.96
  C 517.96 98.96 519.87 96.16 519.92 92.56
  Q 520.09 80.22 519.97 71.53
  Q 519.87 65.04 512.43 65.03
  Q 498.30 65.01 484.18 64.97
  Q 477.23 64.96 476.14 58.05
  C 475.01 50.90 479.22 48.08 485.60 48.01
  Q 509.03 47.77 521.99 48.11
  Q 537.18 48.52 537.05 63.25
  Q 536.89 81.38 537.10 99.09
  C 537.20 107.62 533.98 116.05 524.15 116.05
  Q 504.07 116.03 483.29 116.00
  C 476.41 115.99 474.70 108.46 476.95 103.26
  C 478.36 100.02 482.66 99.04 485.81 99.03
  Q 499.66 98.98 514.17 98.96
  Z"
/>
<path fill="#ffffff" d="
  M 620.22 230.25
  C 612.80 227.14 610.01 217.82 610.00 209.99
  Q 609.98 141.05 610.01 78.10
  C 610.01 67.40 613.45 55.40 625.09 52.88
  Q 629.66 51.89 636.51 51.92
  Q 675.50 52.08 731.44 51.97
  C 740.72 51.95 750.95 54.63 754.48 63.91
  Q 756.09 68.13 756.07 77.13
  Q 755.89 142.81 756.08 212.32
  C 756.13 227.27 747.40 232.67 733.61 232.66
  Q 682.43 232.61 631.48 232.67
  Q 626.04 232.68 620.22 230.25
  Z
  M 736.74 85.28
  C 736.73 82.99 736.05 80.91 736.07 78.68
  C 736.09 75.75 734.09 72.96 731.20 72.30
  Q 729.28 71.86 727.09 71.54
  Q 724.82 71.22 722.47 71.22
  Q 684.05 71.28 643.37 71.27
  Q 641.51 71.27 639.76 71.54
  C 637.36 71.92 633.38 72.27 632.00 74.27
  Q 630.22 76.84 630.18 81.50
  Q 629.96 105.14 630.01 129.99
  A 1.02 1.02 0.0 0 0 631.03 131.00
  L 736.22 131.00
  Q 736.76 131.00 736.76 130.46
  Q 736.77 108.10 736.74 85.28
  Z
  M 736.71 198.02
  Q 736.80 173.26 736.74 150.52
  Q 736.74 150.00 736.22 150.00
  L 630.29 150.00
  A 0.27 0.27 0.0 0 0 630.02 150.27
  Q 629.99 175.42 630.01 201.88
  Q 630.02 204.73 630.87 207.58
  C 632.20 212.04 636.71 213.00 640.75 213.00
  Q 672.10 212.99 723.60 213.01
  C 728.76 213.01 735.64 212.92 736.03 205.92
  C 736.18 203.23 736.70 200.90 736.71 198.02
  Z"
/>
<path fill="#ffffff" d="
  M 11.07 120.07
  Q 20.19 99.89 33.87 83.12
  Q 43.05 71.87 52.82 60.74
  Q 56.14 56.95 59.62 54.37
  Q 61.15 53.24 61.05 55.14
  Q 60.95 57.07 60.35 59.00
  C 57.46 68.30 54.63 78.29 53.63 87.74
  Q 51.93 103.79 56.17 120.61
  Q 56.47 121.78 55.33 122.16
  C 40.55 127.21 24.63 132.65 8.03 137.97
  A 0.91 0.91 0.0 0 1 6.84 137.06
  Q 7.22 128.59 11.07 120.07
  Z"
/>
<path fill="#ffffff" d="
  M 1084.02 78.91
  Q 1086.57 87.52 1087.26 95.18
  Q 1087.84 101.54 1082.01 101.93
  Q 1077.94 102.19 1076.09 98.77
  Q 1073.88 94.66 1072.70 89.51
  Q 1070.83 81.34 1070.36 73.98
  Q 1070.17 70.98 1073.00 70.10
  C 1080.07 67.91 1082.43 73.54 1084.02 78.91
  Z"
/>
<path fill="#ffffff" d="
  M 1122.41 95.96
  C 1121.41 98.64 1119.65 102.22 1116.30 102.30
  C 1113.97 102.36 1110.31 102.12 1110.10 99.10
  Q 1109.79 94.61 1110.73 90.09
  Q 1112.08 83.64 1114.01 76.18
  C 1115.07 72.14 1117.13 69.30 1121.84 69.63
  C 1126.58 69.96 1128.22 73.69 1127.38 77.79
  Q 1125.16 88.53 1122.41 95.96
  Z"
/>
<path fill="#ffffff" d="
  M 260.29 142.42
  Q 261.20 144.06 262.94 144.83
  Q 276.91 151.00 287.39 160.58
  C 290.91 163.79 294.10 167.58 296.36 171.86
  Q 302.35 183.26 303.64 195.89
  C 303.94 198.92 303.64 202.04 302.53 204.83
  Q 301.27 207.99 297.97 207.48
  C 285.63 205.53 273.15 205.82 260.65 206.05
  A 2.50 2.50 0.0 0 1 258.39 204.72
  C 253.33 195.08 245.08 186.94 234.35 184.47
  C 221.86 181.61 207.47 183.38 195.90 187.88
  Q 194.58 188.39 193.66 187.32
  C 182.27 174.04 167.07 165.66 149.83 166.83
  Q 127.49 168.35 115.33 186.71
  C 113.55 189.41 112.16 192.55 110.80 195.52
  A 0.52 0.51 30.3 0 1 110.03 195.72
  Q 94.85 184.63 75.86 185.83
  Q 72.30 186.05 69.51 186.38
  C 60.86 187.38 64.54 177.81 66.49 173.66
  C 72.58 160.68 83.49 149.29 95.06 141.56
  C 106.69 133.79 119.92 130.16 134.31 129.03
  Q 137.78 128.75 136.96 125.40
  Q 135.61 119.90 137.38 114.11
  C 140.39 104.26 153.57 100.88 163.32 99.56
  Q 168.49 98.86 172.99 99.45
  Q 178.36 100.16 184.07 100.27
  Q 186.96 100.33 189.50 99.80
  C 197.53 98.13 201.42 90.07 203.71 83.03
  Q 204.29 81.24 205.23 82.87
  Q 212.46 95.41 222.07 103.13
  C 226.37 106.58 230.33 107.76 235.39 108.86
  C 242.15 110.32 247.81 114.24 252.97 119.48
  Q 260.84 127.48 261.00 137.94
  Q 261.03 139.79 260.25 141.49
  A 1.03 1.00 43.2 0 0 260.29 142.42
  Z
  M 198.3612 118.1582
  A 4.41 1.98 107.4 0 0 201.5694 114.5421
  A 4.41 1.98 107.4 0 0 200.9988 109.7418
  A 4.41 1.98 107.4 0 0 197.7906 113.3579
  A 4.41 1.98 107.4 0 0 198.3612 118.1582
  Z
  M 175.9854 117.8619
  A 5.60 1.98 43.6 0 0 173.2954 112.5661
  A 5.60 1.98 43.6 0 0 167.8746 110.1381
  A 5.60 1.98 43.6 0 0 170.5646 115.4339
  A 5.60 1.98 43.6 0 0 175.9854 117.8619
  Z
  M 151.9001 131.1861
  A 6.02 1.97 106.7 0 0 155.5169 125.9861
  A 6.02 1.97 106.7 0 0 155.3599 119.6539
  A 6.02 1.97 106.7 0 0 151.7431 124.8539
  A 6.02 1.97 106.7 0 0 151.9001 131.1861
  Z
  M 234.1229 126.9371
  A 5.09 1.99 16.4 0 0 229.8019 123.5910
  A 5.09 1.99 16.4 0 0 224.3571 124.0629
  A 5.09 1.99 16.4 0 0 228.6781 127.4090
  A 5.09 1.99 16.4 0 0 234.1229 126.9371
  Z
  M 212.0453 126.8843
  A 1.76 1.76 0.0 0 0 209.7491 125.9238
  L 209.4900 126.0300
  A 1.76 1.76 0.0 0 0 208.5295 128.3262
  L 209.3947 130.4357
  A 1.76 1.76 0.0 0 0 211.6909 131.3962
  L 211.9500 131.2900
  A 1.76 1.76 0.0 0 0 212.9105 128.9938
  L 212.0453 126.8843
  Z
  M 179.1219 131.0353
  A 1.75 1.75 0.0 0 0 177.9906 128.8341
  L 172.4682 127.0611
  A 1.75 1.75 0.0 0 0 170.2671 128.1923
  L 170.2181 128.3447
  A 1.75 1.75 0.0 0 0 171.3494 130.5459
  L 176.8718 132.3189
  A 1.75 1.75 0.0 0 0 179.0729 131.1877
  L 179.1219 131.0353
  Z
  M 197.6067 129.2179
  A 1.79 1.79 0.0 0 0 195.2530 128.2860
  L 188.1496 131.3599
  A 1.79 1.79 0.0 0 0 187.2177 133.7136
  L 187.2733 133.8421
  A 1.79 1.79 0.0 0 0 189.6270 134.7740
  L 196.7304 131.7001
  A 1.79 1.79 0.0 0 0 197.6623 129.3464
  L 197.6067 129.2179
  Z
  M 238.4451 142.9912
  A 3.69 1.97 56.9 0 0 238.0803 138.8242
  A 3.69 1.97 56.9 0 0 234.4149 136.8088
  A 3.69 1.97 56.9 0 0 234.7797 140.9758
  A 3.69 1.97 56.9 0 0 238.4451 142.9912
  Z
  M 216.9549 140.0943
  A 4.75 1.99 -18.1 0 0 211.8218 139.6785
  A 4.75 1.99 -18.1 0 0 207.9251 143.0457
  A 4.75 1.99 -18.1 0 0 213.0582 143.4615
  A 4.75 1.99 -18.1 0 0 216.9549 140.0943
  Z
  M 165.1171 141.4937
  A 1.76 1.76 0.0 0 0 162.8126 140.5532
  L 156.1014 143.3743
  A 1.76 1.76 0.0 0 0 155.1609 145.6788
  L 155.2229 145.8263
  A 1.76 1.76 0.0 0 0 157.5274 146.7668
  L 164.2386 143.9457
  A 1.76 1.76 0.0 0 0 165.1791 141.6412
  L 165.1171 141.4937
  Z
  M 193.4162 153.1758
  A 1.72 1.72 0.0 0 0 193.3737 150.7437
  L 187.7053 145.2698
  A 1.72 1.72 0.0 0 0 185.2733 145.3123
  L 185.2038 145.3842
  A 1.72 1.72 0.0 0 0 185.2463 147.8163
  L 190.9147 153.2902
  A 1.72 1.72 0.0 0 0 193.3467 153.2477
  L 193.4162 153.1758
  Z
  M 231.4563 151.9160
  A 1.76 1.76 0.0 0 0 230.9558 149.4778
  L 230.8556 149.4117
  A 1.76 1.76 0.0 0 0 228.4175 149.9122
  L 224.1237 156.4240
  A 1.76 1.76 0.0 0 0 224.6242 158.8622
  L 224.7244 158.9283
  A 1.76 1.76 0.0 0 0 227.1625 158.4278
  L 231.4563 151.9160
  Z
  M 208.9171 157.3725
  A 1.45 1.45 0.0 0 0 207.4125 155.9792
  L 207.2326 155.9861
  A 1.45 1.45 0.0 0 0 205.8394 157.4907
  L 206.0029 161.7475
  A 1.45 1.45 0.0 0 0 207.5075 163.1408
  L 207.6874 163.1339
  A 1.45 1.45 0.0 0 0 209.0806 161.6293
  L 208.9171 157.3725
  Z"
/>
<path fill="#ffffff" d="
  M 274.91 144.72
  C 278.94 140.69 280.34 135.26 277.14 130.32
  Q 274.48 126.22 269.41 125.59
  C 267.60 125.37 266.05 125.87 264.29 126.10
  Q 263.73 126.18 263.45 125.68
  Q 256.59 112.99 243.72 106.40
  C 241.91 105.47 239.87 104.98 238.00 104.12
  Q 237.36 103.83 237.87 103.35
  Q 247.63 94.09 261.50 91.98
  C 264.47 91.52 267.57 91.15 270.53 91.41
  Q 292.30 93.30 304.49 109.95
  Q 310.41 118.02 312.29 128.17
  Q 315.72 146.75 303.53 163.75
  Q 302.17 165.64 300.45 167.15
  Q 300.04 167.52 299.72 167.08
  Q 289.81 153.57 275.02 145.48
  Q 274.46 145.17 274.91 144.72
  Z"
/>
<path fill="#ffffff" d="
  M 115.60 128.50
  L 100.82 103.76
  A 0.49 0.49 0.0 0 1 100.95 103.12
  L 106.89 98.81
  A 0.49 0.49 0.0 0 1 107.58 98.92
  L 126.06 125.76
  A 0.49 0.49 0.0 0 1 125.77 126.51
  L 116.13 128.73
  A 0.49 0.49 0.0 0 1 115.60 128.50
  Z"
/>
<path fill="#ffffff" d="
  M 503.44 188.20
  Q 504.43 187.30 505.18 185.97
  Q 513.71 170.87 519.79 154.46
  Q 521.08 150.97 520.88 148.96
  Q 520.68 146.92 518.53 146.93
  Q 498.57 147.09 480.30 146.82
  C 476.90 146.77 472.43 146.71 470.24 143.80
  Q 466.43 138.73 470.00 132.93
  C 471.54 130.42 474.53 129.96 477.20 129.97
  Q 499.06 130.04 521.96 129.96
  C 527.27 129.94 532.78 129.56 537.24 132.84
  Q 540.70 135.39 540.77 140.27
  Q 540.85 145.49 539.03 151.34
  Q 535.94 161.28 530.85 171.55
  Q 523.01 187.37 514.39 200.14
  Q 513.61 201.29 514.58 202.28
  Q 516.73 204.50 519.28 206.26
  Q 529.85 213.56 542.08 220.45
  Q 549.75 224.78 548.01 233.18
  C 547.34 236.42 544.95 238.85 541.55 239.14
  Q 535.94 239.61 531.85 237.82
  C 521.45 233.27 511.48 223.69 502.97 215.25
  A 1.06 1.05 -45.2 0 0 501.47 215.26
  Q 487.72 229.22 468.53 238.23
  C 461.82 241.39 449.76 243.79 449.75 232.06
  Q 449.75 226.16 456.03 223.30
  Q 463.37 219.97 465.55 219.06
  Q 480.11 213.01 491.76 202.42
  Q 492.15 202.06 491.86 201.62
  Q 489.89 198.61 487.95 195.59
  C 481.23 185.08 475.18 171.26 476.03 158.99
  Q 476.25 155.80 479.13 154.77
  Q 488.56 151.40 491.66 160.49
  C 494.93 170.10 497.60 179.40 502.74 188.10
  Q 503.03 188.57 503.44 188.20
  Z"
/>
<path fill="#ffffff" d="
  M 185.18 323.28
  Q 176.08 326.68 165.53 327.00
  C 157.82 327.23 150.27 327.37 142.92 325.06
  Q 141.24 324.53 140.89 322.75
  Q 129.96 267.18 118.55 208.81
  Q 117.57 203.82 117.13 200.16
  Q 116.70 196.64 120.61 191.36
  Q 128.02 181.37 139.80 176.58
  C 148.81 172.91 160.66 172.46 169.35 176.62
  C 176.17 179.87 188.17 188.23 188.13 196.19
  Q 188.05 215.44 187.31 233.32
  C 186.64 249.46 187.10 266.39 186.89 282.24
  Q 186.86 284.46 186.43 289.58
  C 185.54 300.23 185.96 311.29 185.98 322.13
  A 1.23 1.23 0.0 0 1 185.18 323.28
  Z"
/>
<path fill="#ffffff" d="
  M 233.45 191.07
  Q 244.91 194.86 249.90 206.31
  Q 251.27 209.46 250.53 212.59
  Q 238.95 261.07 226.71 313.28
  Q 226.37 314.72 225.84 316.09
  C 224.37 319.89 218.26 322.81 214.70 323.70
  Q 207.32 325.55 202.96 324.92
  Q 198.71 324.29 194.29 323.70
  Q 191.90 323.37 192.10 320.97
  C 192.42 317.22 193.10 313.59 192.99 309.84
  Q 192.75 301.75 193.34 294.87
  Q 194.00 287.02 194.05 280.60
  Q 194.11 272.81 194.38 266.02
  C 194.48 263.61 195.00 261.15 195.00 258.62
  C 194.98 251.13 194.82 243.70 195.57 236.15
  Q 196.17 230.06 196.04 223.04
  Q 195.96 218.83 196.57 212.58
  Q 197.31 204.97 196.89 197.06
  A 2.19 2.18 -20.2 0 1 197.75 195.21
  Q 199.09 194.20 200.66 193.49
  Q 217.53 185.81 233.45 191.07
  Z"
/>
<path fill="#ffffff" d="
  M 121.04 323.85
  C 116.27 323.66 112.43 320.56 110.18 316.52
  Q 80.26 262.87 50.31 209.40
  A 1.07 1.05 47.1 0 1 50.34 208.31
  C 56.71 198.27 67.14 192.17 79.24 192.11
  C 88.05 192.06 98.28 194.43 105.39 200.12
  Q 107.40 201.73 108.01 204.49
  Q 108.63 207.34 109.30 210.24
  Q 122.27 266.83 135.34 323.39
  Q 135.48 324.02 134.84 324.03
  Q 127.57 324.11 121.04 323.85
  Z"
/>
<path fill="#ffffff" d="
  M 1147.85 229.56
  C 1139.52 235.09 1135.04 225.12 1132.93 219.17
  Q 1129.76 210.23 1126.72 200.71
  Q 1125.98 198.38 1126.77 196.32
  Q 1128.60 191.56 1134.22 192.11
  C 1141.63 192.84 1148.14 214.75 1149.63 220.31
  C 1150.41 223.24 1150.82 227.58 1147.85 229.56
  Z"
/>
<path fill="#ffffff" d="
  M 1116.10 200.60
  Q 1120.11 208.96 1123.02 220.14
  Q 1124.03 224.00 1124.30 227.99
  Q 1124.63 232.92 1120.08 234.31
  Q 1111.78 236.86 1109.00 228.87
  Q 1104.13 214.88 1101.27 201.13
  C 1100.76 198.68 1101.48 196.44 1103.88 195.29
  C 1109.93 192.39 1113.67 195.52 1116.10 200.60
  Z"
/>
<path fill="#ffffff" d="
  M 1086.94 198.02
  C 1089.70 200.32 1091.30 205.23 1092.23 208.70
  Q 1094.85 218.54 1096.60 230.76
  Q 1096.84 232.43 1096.09 233.99
  C 1094.81 236.67 1092.59 238.01 1089.55 238.12
  C 1086.21 238.24 1083.83 237.86 1082.06 234.70
  Q 1080.66 232.19 1080.22 229.23
  Q 1078.49 217.60 1076.84 205.53
  Q 1075.76 197.63 1083.22 197.03
  Q 1085.53 196.84 1086.94 198.02
  Z"
/>
<path fill="#ffffff" d="
  M 1067.91 208.66
  C 1066.90 215.70 1063.31 235.93 1055.68 237.98
  Q 1053.06 238.68 1050.35 237.71
  Q 1044.51 235.62 1046.34 228.32
  Q 1049.57 215.39 1052.86 205.21
  C 1053.81 202.27 1055.51 198.42 1059.05 197.98
  C 1062.56 197.54 1067.29 198.48 1067.94 202.56
  Q 1068.38 205.36 1067.91 208.66
  Z"
/>
<path fill="#ffffff" d="
  M 279.16 289.15
  Q 273.47 298.60 267.81 307.53
  Q 265.13 311.76 261.03 313.10
  Q 252.79 315.80 246.76 316.70
  Q 241.53 317.49 236.26 317.89
  Q 233.82 318.07 231.24 317.95
  Q 230.20 317.90 230.47 316.89
  Q 243.53 268.12 256.84 219.37
  C 258.52 213.22 262.01 211.86 267.94 211.44
  Q 283.07 210.38 298.10 212.19
  Q 300.04 212.43 305.09 213.91
  C 309.29 215.15 313.63 218.48 314.10 223.10
  Q 314.89 230.74 311.51 236.18
  Q 296.37 260.57 279.16 289.15
  Z"
/>
<path fill="#ffffff" d="
  M 424.18 273.50
  C 431.06 258.36 449.14 252.83 464.00 259.72
  Q 476.76 265.64 479.73 280.94
  C 480.57 285.26 480.33 291.82 479.18 296.22
  Q 476.05 308.18 464.69 314.38
  C 460.53 316.65 455.92 317.15 451.25 317.24
  C 433.85 317.58 422.95 306.35 421.29 289.88
  Q 420.46 281.69 424.18 273.50
  Z
  M 450.8100 308.3800
  A 21.14 20.01 90.0 0 0 470.8200 287.2400
  A 21.14 20.01 90.0 0 0 450.8100 266.1000
  A 21.14 20.01 90.0 0 0 430.8000 287.2400
  A 21.14 20.01 90.0 0 0 450.8100 308.3800
  Z"
/>
<path fill="#ffffff" d="
  M 981.94 294.89
  Q 975.66 292.82 967.53 290.71
  C 958.40 288.34 950.58 282.68 952.41 271.98
  C 954.00 262.76 962.09 257.98 970.74 257.09
  Q 980.95 256.05 991.07 260.01
  Q 995.02 261.56 993.58 265.56
  Q 993.56 265.61 993.52 265.73
  Q 992.01 269.90 987.46 268.44
  Q 981.07 266.40 975.82 266.15
  Q 971.33 265.95 966.45 268.00
  C 962.18 269.79 960.14 275.10 964.14 278.43
  Q 966.42 280.33 970.20 281.30
  Q 975.78 282.73 981.25 284.19
  C 988.63 286.16 995.22 289.80 996.14 298.29
  C 997.33 309.31 988.14 316.52 977.90 317.05
  C 969.75 317.48 961.60 316.87 954.57 313.32
  Q 951.48 311.75 951.90 307.82
  Q 951.98 307.13 952.37 306.55
  Q 954.57 303.25 958.24 304.77
  Q 967.06 308.42 976.06 307.96
  C 981.36 307.69 987.46 305.43 986.16 298.71
  C 985.79 296.78 983.66 295.46 981.94 294.89
  Z"
/>
<path fill="#ffffff" d="
  M 1023.71 278.13
  Q 1025.92 279.97 1028.58 280.76
  Q 1033.99 282.38 1040.16 283.90
  Q 1045.97 285.33 1050.43 288.26
  Q 1053.73 290.43 1055.05 294.23
  Q 1058.67 304.62 1051.08 311.74
  Q 1046.40 316.14 1040.01 316.83
  Q 1035.48 317.31 1030.14 317.07
  Q 1021.86 316.70 1015.01 313.57
  Q 1010.77 311.63 1012.22 307.36
  Q 1012.25 307.28 1012.28 307.19
  Q 1013.71 302.97 1017.83 304.68
  Q 1026.62 308.32 1035.58 307.98
  Q 1038.80 307.86 1041.80 306.69
  Q 1046.57 304.82 1046.28 299.72
  Q 1046.17 297.78 1044.82 296.65
  Q 1042.83 295.00 1040.17 294.26
  Q 1032.46 292.11 1025.65 290.09
  Q 1022.77 289.23 1019.92 287.68
  Q 1017.30 286.25 1015.59 284.21
  Q 1009.67 277.16 1013.53 268.16
  Q 1015.29 264.05 1019.08 261.26
  Q 1022.58 258.67 1027.20 257.74
  Q 1039.03 255.36 1050.89 259.93
  Q 1054.91 261.48 1053.51 265.51
  Q 1053.48 265.59 1053.45 265.67
  Q 1051.80 269.85 1047.71 268.52
  Q 1041.36 266.47 1035.83 266.16
  Q 1032.68 265.98 1028.42 267.21
  Q 1025.78 267.98 1023.95 269.69
  Q 1021.87 271.63 1021.91 274.40
  Q 1021.93 276.64 1023.71 278.13
  Z"
/>
<path fill="#ffffff" d="
  M 590.59 262.87
  A 4.95 4.95 0.0 0 1 595.53 257.90
  L 612.40 257.84
  A 28.86 28.80 89.8 0 1 641.30 286.60
  L 641.30 287.92
  A 28.86 28.80 89.8 0 1 612.60 316.88
  L 595.73 316.94
  A 4.95 4.95 0.0 0 1 590.77 312.01
  L 590.59 262.87
  Z
  M 600.04 267.93
  L 599.98 306.51
  A 0.75 0.75 0.0 0 0 600.73 307.26
  L 611.74 307.28
  A 19.82 19.26 0.1 0 0 631.59 288.06
  L 631.59 286.50
  A 19.82 19.26 0.1 0 0 611.80 267.20
  L 600.79 267.18
  A 0.75 0.75 0.0 0 0 600.04 267.93
  Z"
/>
<path fill="#ffffff" d="
  M 746.01 282.49
  Q 752.98 271.88 760.85 260.59
  C 765.24 254.30 773.62 259.77 768.71 266.65
  Q 760.23 278.51 752.68 288.91
  C 751.40 290.67 750.06 292.36 750.09 294.67
  Q 750.18 303.44 750.10 312.48
  C 750.07 315.56 748.44 317.01 745.40 316.95
  Q 740.90 316.85 740.84 312.18
  Q 740.71 302.18 740.76 293.84
  A 4.98 4.92 27.5 0 0 739.81 290.90
  Q 731.39 279.33 722.18 266.38
  C 717.56 259.90 725.70 254.45 729.90 260.29
  Q 737.62 271.02 745.18 282.49
  Q 745.59 283.13 746.01 282.49
  Z"
/>
<path fill="#ffffff" d="
  M 823.07 262.62
  A 4.85 4.85 0.0 0 1 827.93 257.79
  L 844.74 257.85
  A 28.62 27.88 0.2 0 1 873.27 285.83
  L 873.25 289.15
  A 28.62 27.88 0.2 0 1 844.54 316.93
  L 827.73 316.87
  A 4.85 4.85 0.0 0 1 822.89 312.00
  L 823.07 262.62
  Z
  M 832.77 267.97
  L 832.91 306.49
  A 0.81 0.81 0.0 0 0 833.72 307.30
  L 844.14 307.26
  A 19.89 19.60 -0.2 0 0 863.96 287.60
  L 863.96 286.66
  A 19.89 19.60 -0.2 0 0 844.00 267.13
  L 833.58 267.16
  A 0.81 0.81 0.0 0 0 832.77 267.97
  Z"
/>
<path fill="#ffffff" d="
  M 1148.22 295.06
  Q 1146.95 295.10 1146.97 296.36
  Q 1147.10 304.76 1146.93 311.87
  C 1146.85 315.19 1145.01 316.93 1141.72 316.87
  Q 1137.07 316.80 1137.05 311.99
  Q 1136.94 287.04 1137.03 262.97
  C 1137.04 260.01 1139.34 258.13 1142.14 258.03
  Q 1154.59 257.60 1164.35 258.10
  C 1176.76 258.75 1187.09 267.60 1183.03 280.87
  Q 1181.25 286.69 1176.19 289.60
  A 0.59 0.59 0.0 0 0 1176.11 290.58
  C 1183.38 296.36 1183.29 304.28 1183.01 312.82
  Q 1182.87 317.02 1178.55 316.99
  C 1175.55 316.97 1173.93 315.64 1173.82 312.57
  Q 1173.63 306.76 1172.58 301.86
  Q 1171.72 297.86 1167.95 295.94
  Q 1166.07 294.98 1161.66 294.92
  Q 1155.07 294.83 1148.22 295.06
  Z
  M 1147.03 267.45
  L 1146.97 284.95
  A 0.20 0.20 0.0 0 0 1147.17 285.15
  L 1162.46 285.21
  A 11.57 8.14 0.2 0 0 1174.06 277.11
  L 1174.06 275.49
  A 11.57 8.14 0.2 0 0 1162.52 267.31
  L 1147.23 267.25
  A 0.20 0.20 0.0 0 0 1147.03 267.45
  Z"
/>
<path fill="#ffffff" d="
  M 391.06 282.25
  Q 391.07 274.22 391.11 264.15
  Q 391.14 258.47 396.02 257.92
  C 399.33 257.54 401.03 259.64 401.02 262.80
  Q 400.99 288.36 401.03 312.42
  C 401.03 315.53 399.22 317.08 396.02 316.86
  Q 391.24 316.54 391.14 310.72
  Q 391.00 301.92 391.09 292.62
  A 0.61 0.60 -89.5 0 0 390.49 292.00
  L 363.70 292.00
  Q 363.05 292.00 363.04 292.65
  Q 362.99 301.74 363.04 312.14
  C 363.06 315.60 361.41 317.21 358.14 316.90
  Q 353.55 316.45 353.56 311.85
  Q 353.57 287.61 353.56 263.09
  C 353.56 260.57 355.36 257.76 358.26 257.84
  Q 363.08 257.98 363.05 262.70
  Q 362.99 272.07 363.03 282.27
  Q 363.04 282.99 363.76 282.99
  L 390.32 282.99
  Q 391.06 282.99 391.06 282.25
  Z"
/>
<path fill="#ffffff" d="
  M 510.87 307.02
  Q 523.32 306.96 535.37 307.03
  C 538.71 307.04 540.16 308.74 540.12 311.99
  Q 540.06 316.73 535.29 316.81
  Q 519.36 317.11 507.34 316.81
  Q 502.70 316.69 501.47 313.32
  Q 500.65 311.09 500.66 308.01
  Q 500.74 285.82 500.71 263.24
  Q 500.71 257.95 505.34 258.01
  Q 505.40 258.01 505.55 258.01
  Q 510.18 258.05 510.19 262.98
  Q 510.21 285.34 510.20 306.35
  Q 510.20 307.02 510.87 307.02
  Z"
/>
<rect fill="#ffffff" x="557.03" y="257.93" width="9.98" height="59.04" rx="4.62"/>
<path fill="#ffffff" d="
  M 695.97 302.00
  L 672.03 302.00
  A 1.21 1.20 -79.9 0 0 670.90 302.79
  Q 669.26 307.14 666.21 313.72
  C 664.70 316.98 662.50 317.90 659.46 316.44
  Q 655.41 314.49 657.47 309.54
  Q 668.44 283.15 677.86 261.49
  C 678.74 259.46 680.70 257.81 683.03 257.94
  C 684.65 258.03 686.29 257.66 687.75 258.64
  Q 689.28 259.66 690.04 261.42
  Q 700.22 284.91 710.56 309.78
  C 713.47 316.76 704.47 320.18 701.61 313.67
  Q 699.38 308.61 697.08 302.76
  Q 696.78 302.00 695.97 302.00
  Z
  M 675.29 292.35
  A 0.48 0.48 0.0 0 0 675.73 293.02
  L 692.29 292.99
  A 0.48 0.48 0.0 0 0 692.73 292.32
  L 684.42 272.48
  A 0.48 0.48 0.0 0 0 683.53 272.49
  L 675.29 292.35
  Z"
/>
<path fill="#ffffff" d="
  M 903.45 292.76
  L 903.43 306.46
  Q 903.43 307.18 904.15 307.18
  Q 917.44 307.03 930.05 307.19
  Q 934.96 307.25 935.26 311.95
  C 935.47 315.23 933.17 316.85 929.85 316.88
  Q 914.01 317.02 898.52 316.87
  A 4.59 4.59 0.0 0 1 893.97 312.28
  L 893.97 262.25
  A 4.22 4.21 89.9 0 1 898.16 258.03
  Q 913.51 257.96 930.44 258.03
  Q 934.84 258.05 935.23 262.41
  Q 935.23 262.44 935.25 262.59
  Q 935.64 267.00 931.22 267.02
  Q 916.62 267.09 904.69 267.05
  A 1.26 1.25 -0.0 0 0 903.43 268.30
  L 903.44 281.94
  A 1.03 1.03 0.0 0 0 904.47 282.97
  Q 916.11 283.01 928.24 282.95
  Q 932.30 282.92 932.53 287.42
  Q 932.54 287.56 932.51 287.69
  Q 931.46 292.06 927.56 292.04
  Q 916.08 291.97 904.21 292.00
  Q 903.45 292.00 903.45 292.76
  Z"
/>
<path fill="#ffffff" d="
  M 1085.00 292.68
  L 1085.00 306.52
  A 0.63 0.62 0.0 0 0 1085.63 307.14
  Q 1097.96 307.12 1111.58 307.11
  C 1113.25 307.11 1116.52 308.65 1116.90 310.44
  Q 1117.75 314.47 1115.26 315.90
  Q 1113.39 316.97 1111.09 316.97
  Q 1093.96 316.91 1081.36 316.92
  C 1079.38 316.93 1076.48 316.01 1075.77 313.79
  Q 1075.06 311.55 1075.05 309.12
  Q 1075.00 285.50 1075.10 263.89
  C 1075.12 260.60 1077.08 258.01 1080.40 258.00
  Q 1097.54 257.94 1112.18 258.08
  Q 1116.97 258.12 1116.98 262.45
  C 1116.98 265.49 1115.67 267.10 1112.49 267.09
  Q 1098.97 267.00 1085.66 267.09
  A 0.66 0.65 -0.0 0 0 1085.00 267.74
  L 1085.00 282.46
  Q 1085.00 282.98 1085.52 282.98
  Q 1098.32 282.99 1109.62 282.97
  C 1112.72 282.97 1114.05 284.58 1114.02 287.60
  Q 1113.96 291.96 1109.61 291.98
  Q 1097.88 292.04 1085.71 291.98
  Q 1085.00 291.97 1085.00 292.68
  Z"
/>
<path fill="#ffffff" d="
  M 1227.97 267.72
  Q 1228.05 287.86 1227.95 311.65
  Q 1227.93 316.78 1223.11 316.82
  C 1219.75 316.86 1218.05 315.41 1218.04 311.84
  Q 1217.96 290.23 1218.02 267.67
  Q 1218.02 267.11 1217.46 267.12
  Q 1210.28 267.21 1202.31 267.02
  Q 1198.43 266.93 1198.19 262.57
  C 1198.04 259.81 1200.83 258.05 1203.03 258.04
  Q 1223.64 257.94 1242.61 258.00
  Q 1246.71 258.01 1247.65 262.31
  Q 1247.68 262.43 1247.67 262.55
  Q 1247.54 267.11 1243.16 267.09
  Q 1236.05 267.04 1228.66 267.04
  Q 1227.97 267.04 1227.97 267.72
  Z"
/>
</svg>
